<mxfile host="Electron" agent="Mozilla/5.0 (Macintosh; Intel Mac OS X 10_15_7) AppleWebKit/537.36 (KHTML, like Gecko) draw.io/24.7.17 Chrome/128.0.6613.36 Electron/32.0.1 Safari/537.36" version="24.7.17">
  <diagram name="Page-1" id="xlyxSmabrF4u6y7tAI_a">
    <mxGraphModel dx="954" dy="674" grid="1" gridSize="10" guides="1" tooltips="1" connect="1" arrows="1" fold="1" page="1" pageScale="1" pageWidth="827" pageHeight="1169" math="0" shadow="0">
      <root>
        <mxCell id="0" />
        <mxCell id="1" parent="0" />
        <mxCell id="jhSlrnmp34gwe5Fo2NNz-3" style="edgeStyle=orthogonalEdgeStyle;rounded=0;orthogonalLoop=1;jettySize=auto;html=1;exitX=1;exitY=0.5;exitDx=0;exitDy=0;entryX=0;entryY=0.5;entryDx=0;entryDy=0;" edge="1" parent="1" source="jhSlrnmp34gwe5Fo2NNz-1" target="jhSlrnmp34gwe5Fo2NNz-2">
          <mxGeometry relative="1" as="geometry" />
        </mxCell>
        <mxCell id="jhSlrnmp34gwe5Fo2NNz-23" value="Event" style="edgeLabel;html=1;align=center;verticalAlign=middle;resizable=0;points=[];" vertex="1" connectable="0" parent="jhSlrnmp34gwe5Fo2NNz-3">
          <mxGeometry x="0.025" relative="1" as="geometry">
            <mxPoint as="offset" />
          </mxGeometry>
        </mxCell>
        <mxCell id="jhSlrnmp34gwe5Fo2NNz-24" style="edgeStyle=orthogonalEdgeStyle;rounded=0;orthogonalLoop=1;jettySize=auto;html=1;exitX=0.75;exitY=1;exitDx=0;exitDy=0;entryX=0;entryY=0.5;entryDx=0;entryDy=0;dashed=1;" edge="1" parent="1" source="jhSlrnmp34gwe5Fo2NNz-1" target="jhSlrnmp34gwe5Fo2NNz-5">
          <mxGeometry relative="1" as="geometry" />
        </mxCell>
        <mxCell id="jhSlrnmp34gwe5Fo2NNz-25" value="Optional event&lt;div&gt;if still open&lt;/div&gt;" style="edgeLabel;html=1;align=center;verticalAlign=middle;resizable=0;points=[];" vertex="1" connectable="0" parent="jhSlrnmp34gwe5Fo2NNz-24">
          <mxGeometry x="-0.27" y="1" relative="1" as="geometry">
            <mxPoint y="-13" as="offset" />
          </mxGeometry>
        </mxCell>
        <mxCell id="jhSlrnmp34gwe5Fo2NNz-1" value="UI" style="rounded=0;whiteSpace=wrap;html=1;" vertex="1" parent="1">
          <mxGeometry x="40" y="40" width="80" height="40" as="geometry" />
        </mxCell>
        <mxCell id="jhSlrnmp34gwe5Fo2NNz-6" style="edgeStyle=orthogonalEdgeStyle;rounded=0;orthogonalLoop=1;jettySize=auto;html=1;exitX=0.5;exitY=1;exitDx=0;exitDy=0;entryX=0.5;entryY=0;entryDx=0;entryDy=0;" edge="1" parent="1" source="jhSlrnmp34gwe5Fo2NNz-2" target="jhSlrnmp34gwe5Fo2NNz-5">
          <mxGeometry relative="1" as="geometry" />
        </mxCell>
        <mxCell id="jhSlrnmp34gwe5Fo2NNz-7" value="Open detail for item" style="edgeLabel;html=1;align=center;verticalAlign=middle;resizable=0;points=[];" vertex="1" connectable="0" parent="jhSlrnmp34gwe5Fo2NNz-6">
          <mxGeometry x="-0.05" y="-1" relative="1" as="geometry">
            <mxPoint as="offset" />
          </mxGeometry>
        </mxCell>
        <mxCell id="jhSlrnmp34gwe5Fo2NNz-2" value="List" style="rounded=0;whiteSpace=wrap;html=1;" vertex="1" parent="1">
          <mxGeometry x="200" y="40" width="80" height="40" as="geometry" />
        </mxCell>
        <mxCell id="jhSlrnmp34gwe5Fo2NNz-9" style="edgeStyle=orthogonalEdgeStyle;rounded=0;orthogonalLoop=1;jettySize=auto;html=1;exitX=1;exitY=0.5;exitDx=0;exitDy=0;entryX=0;entryY=0.5;entryDx=0;entryDy=0;" edge="1" parent="1" source="jhSlrnmp34gwe5Fo2NNz-5" target="jhSlrnmp34gwe5Fo2NNz-8">
          <mxGeometry relative="1" as="geometry" />
        </mxCell>
        <mxCell id="jhSlrnmp34gwe5Fo2NNz-10" value="Command" style="edgeLabel;html=1;align=center;verticalAlign=middle;resizable=0;points=[];" vertex="1" connectable="0" parent="jhSlrnmp34gwe5Fo2NNz-9">
          <mxGeometry x="-0.025" y="-1" relative="1" as="geometry">
            <mxPoint y="-1" as="offset" />
          </mxGeometry>
        </mxCell>
        <mxCell id="jhSlrnmp34gwe5Fo2NNz-5" value="Detail screen" style="rounded=0;whiteSpace=wrap;html=1;" vertex="1" parent="1">
          <mxGeometry x="200" y="160" width="80" height="40" as="geometry" />
        </mxCell>
        <mxCell id="jhSlrnmp34gwe5Fo2NNz-13" style="edgeStyle=orthogonalEdgeStyle;rounded=0;orthogonalLoop=1;jettySize=auto;html=1;exitX=1;exitY=0.5;exitDx=0;exitDy=0;entryX=0;entryY=0.5;entryDx=0;entryDy=0;" edge="1" parent="1" source="jhSlrnmp34gwe5Fo2NNz-8" target="jhSlrnmp34gwe5Fo2NNz-12">
          <mxGeometry relative="1" as="geometry" />
        </mxCell>
        <mxCell id="jhSlrnmp34gwe5Fo2NNz-14" value="Event" style="edgeLabel;html=1;align=center;verticalAlign=middle;resizable=0;points=[];" vertex="1" connectable="0" parent="jhSlrnmp34gwe5Fo2NNz-13">
          <mxGeometry x="-0.025" y="1" relative="1" as="geometry">
            <mxPoint as="offset" />
          </mxGeometry>
        </mxCell>
        <mxCell id="jhSlrnmp34gwe5Fo2NNz-19" style="edgeStyle=orthogonalEdgeStyle;rounded=0;orthogonalLoop=1;jettySize=auto;html=1;exitX=0.5;exitY=1;exitDx=0;exitDy=0;entryX=0.25;entryY=1;entryDx=0;entryDy=0;" edge="1" parent="1" source="jhSlrnmp34gwe5Fo2NNz-8" target="jhSlrnmp34gwe5Fo2NNz-1">
          <mxGeometry relative="1" as="geometry" />
        </mxCell>
        <mxCell id="jhSlrnmp34gwe5Fo2NNz-20" value="Event" style="edgeLabel;html=1;align=center;verticalAlign=middle;resizable=0;points=[];" vertex="1" connectable="0" parent="jhSlrnmp34gwe5Fo2NNz-19">
          <mxGeometry x="0.1583" y="-1" relative="1" as="geometry">
            <mxPoint as="offset" />
          </mxGeometry>
        </mxCell>
        <mxCell id="jhSlrnmp34gwe5Fo2NNz-8" value="Aggregate" style="rounded=0;whiteSpace=wrap;html=1;" vertex="1" parent="1">
          <mxGeometry x="360" y="160" width="80" height="40" as="geometry" />
        </mxCell>
        <mxCell id="jhSlrnmp34gwe5Fo2NNz-21" style="edgeStyle=orthogonalEdgeStyle;rounded=0;orthogonalLoop=1;jettySize=auto;html=1;exitX=0.5;exitY=0;exitDx=0;exitDy=0;entryX=0.5;entryY=0;entryDx=0;entryDy=0;" edge="1" parent="1" source="jhSlrnmp34gwe5Fo2NNz-11" target="jhSlrnmp34gwe5Fo2NNz-1">
          <mxGeometry relative="1" as="geometry" />
        </mxCell>
        <mxCell id="jhSlrnmp34gwe5Fo2NNz-22" value="Event" style="edgeLabel;html=1;align=center;verticalAlign=middle;resizable=0;points=[];" vertex="1" connectable="0" parent="jhSlrnmp34gwe5Fo2NNz-21">
          <mxGeometry x="-0.1154" relative="1" as="geometry">
            <mxPoint as="offset" />
          </mxGeometry>
        </mxCell>
        <mxCell id="jhSlrnmp34gwe5Fo2NNz-11" value="List aggregate" style="rounded=0;whiteSpace=wrap;html=1;" vertex="1" parent="1">
          <mxGeometry x="520" y="40" width="80" height="40" as="geometry" />
        </mxCell>
        <mxCell id="jhSlrnmp34gwe5Fo2NNz-15" style="edgeStyle=orthogonalEdgeStyle;rounded=0;orthogonalLoop=1;jettySize=auto;html=1;exitX=0.5;exitY=0;exitDx=0;exitDy=0;entryX=0.5;entryY=1;entryDx=0;entryDy=0;" edge="1" parent="1" source="jhSlrnmp34gwe5Fo2NNz-12" target="jhSlrnmp34gwe5Fo2NNz-11">
          <mxGeometry relative="1" as="geometry" />
        </mxCell>
        <mxCell id="jhSlrnmp34gwe5Fo2NNz-16" value="Command" style="edgeLabel;html=1;align=center;verticalAlign=middle;resizable=0;points=[];" vertex="1" connectable="0" parent="jhSlrnmp34gwe5Fo2NNz-15">
          <mxGeometry x="0.1" y="-1" relative="1" as="geometry">
            <mxPoint as="offset" />
          </mxGeometry>
        </mxCell>
        <mxCell id="jhSlrnmp34gwe5Fo2NNz-12" value="Reactor" style="rounded=0;whiteSpace=wrap;html=1;" vertex="1" parent="1">
          <mxGeometry x="520" y="160" width="80" height="40" as="geometry" />
        </mxCell>
      </root>
    </mxGraphModel>
  </diagram>
</mxfile>
